<?xml version="1.0" encoding="UTF-8" standalone="no"?>
<!-- Created with Inkscape (http://www.inkscape.org/) -->

<svg
   width="56.72271mm"
   height="8.6659899mm"
   viewBox="0 0 56.72271 8.6659899"
   version="1.1"
   id="svg909"
   inkscape:version="1.2.2 (b0a8486541, 2022-12-01)"
   sodipodi:docname="logo.svg"
   xmlns:inkscape="http://www.inkscape.org/namespaces/inkscape"
   xmlns:sodipodi="http://sodipodi.sourceforge.net/DTD/sodipodi-0.dtd"
   xmlns="http://www.w3.org/2000/svg"
   xmlns:svg="http://www.w3.org/2000/svg">
  <sodipodi:namedview
     id="namedview911"
     pagecolor="#ffffff"
     bordercolor="#000000"
     borderopacity="0.25"
     inkscape:showpageshadow="2"
     inkscape:pageopacity="0.0"
     inkscape:pagecheckerboard="0"
     inkscape:deskcolor="#d1d1d1"
     inkscape:document-units="mm"
     showgrid="false"
     inkscape:zoom="3.6056645"
     inkscape:cx="123.9716"
     inkscape:cy="9.1522658"
     inkscape:window-width="1920"
     inkscape:window-height="1118"
     inkscape:window-x="0"
     inkscape:window-y="25"
     inkscape:window-maximized="1"
     inkscape:current-layer="layer1" />
  <defs
     id="defs906" />
  <g
     inkscape:label="Layer 1"
     inkscape:groupmode="layer"
     id="layer1"
     transform="translate(-55.271921,-209.164)">
    <path
       id="1-1-4"
       style="fill:#000000;stroke:none;stroke-width:0.1;stroke-dasharray:none"
       d="m 55.271921,209.164 v 0.78781 0.78784 0.78779 0.78781 0.78784 0.78781 0.78782 0.7878 0.78781 h 0.787809 0.787834 0.787809 v -0.78781 -0.7878 -0.78782 h 0.787808 0.787827 0.787808 v -0.78781 -0.78784 -0.78781 h 0.787805 v 0.78781 0.78784 0.78781 0.78782 0.7878 0.78781 h 0.78784 0.78781 0.78779 0.78784 0.78782 0.7878 0.78783 0.7878 v -0.78781 -0.7878 -0.78782 h 0.7878 0.78785 0.7878 v 0.78782 0.7878 h 0.78781 v 0.78781 h 0.78784 0.78779 0.78781 0.78783 0.78781 0.78781 v -0.78781 -0.7878 -0.78782 -0.78781 h 0.78783 v 0.78781 0.78782 0.7878 0.78781 h 0.78781 0.78781 0.78783 v -0.78781 -0.7878 -0.78782 -0.78781 h 0.78781 v -0.78784 -0.78781 h 0.78779 0.78784 v 0.78781 0.78784 0.78781 h -0.78784 v 0.78782 0.7878 0.78781 h 0.78784 0.78781 0.78781 0.78784 0.78779 v -0.78781 h 0.78781 v 0.78781 0.78781 0.78785 h 0.78784 0.7878 0.78782 0.78782 0.78781 v -0.78785 h 0.7878 v -0.78781 -0.78781 -0.7878 -0.78782 -0.78781 -0.78784 -0.78781 -0.78779 h -0.7878 -0.78781 -0.78782 v 0.78779 0.78781 0.78784 0.78781 h -0.78782 v -0.78781 -0.78784 -0.78781 -0.78779 h -0.7878 -0.78784 -0.78781 v 0.78779 0.78781 0.78784 0.78781 h -0.78779 v -0.78781 -0.78784 -0.78781 -0.78779 -0.78784 -0.78781 h -0.78784 -0.78781 -0.78781 -0.78784 -0.78779 -0.78781 -0.78783 -0.78781 v 0.78781 h -0.78781 v 0.78784 h -0.78783 v 0.78779 h -0.78781 v -0.78779 h -0.78781 -0.78783 -0.78781 -0.78779 -0.78784 v 0.78779 h -0.78781 v -0.78779 h -0.7878 -0.78785 -0.7878 -0.7878 -0.78783 -0.7878 v 0.78779 0.78781 0.78784 0.78781 h -0.78782 v -0.78781 -0.78784 -0.78781 -0.78779 -0.78784 -0.78781 h -0.78784 -0.78779 -0.78781 v 0.78781 0.78784 h -0.78784 V 209.95181 209.164 H 59.998816 59.211008 58.423181 57.635373 56.847564 56.05973 Z m 37.02733,0 v 0.78781 0.78784 0.78779 h 0.78782 0.7878 v 0.78781 h -0.7878 v 0.78784 h -0.78782 v 0.78781 0.78782 0.7878 0.78781 h 0.78782 0.7878 0.78784 0.7878 0.78779 0.78785 0.7878 0.78781 0.78785 0.787789 0.7878 0.78783 0.78781 0.78781 0.78783 v -0.78781 -0.7878 -0.78782 h 0.78781 0.78781 0.78783 v 0.78782 0.7878 h 0.78781 v 0.78781 h 0.7878 0.78784 0.7878 0.78781 0.78784 v -0.78781 h 0.7878 v -0.7878 -0.78782 -0.78781 -0.78784 -0.78781 h -0.7878 v -0.78779 h -0.78784 -0.78781 -0.7878 -0.78784 -0.7878 v 0.78779 h -0.78781 v -0.78779 h -0.78783 -0.78781 -0.78781 -0.78783 -0.78781 -0.78781 -0.78783 -0.7878 -0.787789 -0.78785 -0.78781 v -0.78784 -0.78781 h -0.7878 -0.78785 -0.78779 -0.7878 -0.78784 -0.7878 z m -36.239521,0.78781 h 0.787834 0.787809 0.787808 0.787827 0.787808 v 0.78784 h -0.787808 -0.787827 -0.787808 -0.787809 v 0.78779 0.78781 h 0.787809 0.787808 0.787827 v 0.78784 h -0.787827 -0.787808 -0.787809 v 0.78781 0.78782 0.7878 H 56.05973 v -0.7878 -0.78782 -0.78781 -0.78784 -0.78781 -0.78779 z m 6.302541,0 h 0.78779 v 0.78784 h -0.78779 z m 14.96848,0 h 0.78783 0.78781 v 0.78784 h -0.78781 -0.78783 v 0.78779 h 0.78783 v 0.78781 h -0.78783 v 0.78784 0.78781 0.78782 0.7878 h -0.78781 v -0.7878 -0.78782 -0.78781 -0.78784 h -0.78781 v -0.78781 h 0.78781 v -0.78779 h 0.78781 z m 3.15127,0 h 0.78781 0.78781 v 0.78784 0.78779 0.78781 0.78784 0.78781 0.78782 h 0.78784 v 0.7878 h -0.78784 -0.78781 -0.78781 v -0.7878 h 0.78781 v -0.78782 -0.78781 -0.78784 -0.78781 -0.78779 h -0.78781 z m 12.60505,0 h 0.7878 0.78784 0.7878 0.78779 0.78785 v 0.78784 0.78779 h -0.78785 v 0.78781 h -0.78779 v 0.78784 h -0.7878 v 0.78781 h -0.78784 v 0.78782 h 0.78784 0.7878 0.78779 0.78785 v 0.7878 h -0.78785 -0.78779 -0.7878 -0.78784 -0.7878 v -0.7878 -0.78782 h 0.7878 v -0.78781 h 0.78784 v -0.78784 h 0.7878 v -0.78781 h 0.78779 v -0.78779 h -0.78779 -0.7878 -0.78784 -0.7878 z m -31.51261,1.57563 h 0.78781 0.78779 v 0.78781 0.78784 0.78781 0.78782 h 0.78784 v 0.7878 h -0.78784 -0.78779 -0.78781 v -0.7878 h 0.78781 v -0.78782 -0.78781 -0.78784 h -0.78781 z m 3.93906,0 h 0.78783 v 0.78781 h 0.7878 v -0.78781 h 0.7878 0.78785 v 0.78781 h 0.7878 v 0.78784 h -0.7878 v -0.78784 h -0.78785 -0.7878 v 0.78784 h -0.7878 v 0.78781 0.78782 0.7878 h -0.78783 v -0.7878 -0.78782 -0.78781 -0.78784 z m 5.51473,0 h 0.78779 0.78781 0.78783 v 0.78781 h 0.78781 v 0.78784 0.78781 h -0.78781 -0.78783 -0.78781 -0.78779 v 0.78782 h 0.78779 0.78781 0.78783 0.78781 v 0.7878 h -0.78781 -0.78783 -0.78781 -0.78779 v -0.7878 h -0.78784 v -0.78782 -0.78781 -0.78784 h 0.78784 z m 0,0.78781 v 0.78784 h 0.78779 0.78781 0.78783 v -0.78784 h -0.78783 -0.78781 z m 13.39283,-0.78781 h 0.78784 v 0.78781 0.78784 0.78781 0.78782 h 0.7878 0.78782 0.78782 v -0.78782 -0.78781 -0.78784 -0.78781 h 0.78781 v 0.78781 0.78784 0.78781 0.78782 0.7878 0.78781 h -0.78781 v 0.78781 h -0.78782 -0.78782 -0.7878 v -0.78781 h 0.7878 0.78782 0.78782 v -0.78781 h -0.78782 -0.78782 -0.7878 v -0.7878 h -0.78784 v -0.78782 -0.78781 -0.78784 z m 14.18068,0 h 0.78785 0.787789 0.7878 v 0.78781 h 0.78783 v 0.78784 0.78781 h -0.78783 -0.7878 -0.787789 -0.78785 v 0.78782 h 0.78785 0.787789 0.7878 0.78783 v 0.7878 h -0.78783 -0.7878 -0.787789 -0.78785 v -0.7878 h -0.78781 v -0.78782 -0.78781 -0.78784 h 0.78781 z m 0,0.78781 v 0.78784 h 0.78785 0.787789 0.7878 v -0.78784 h -0.7878 -0.787789 z m 3.939079,-0.78781 h 0.78781 v 0.78781 h 0.78783 v -0.78781 h 0.78781 0.78781 v 0.78781 h 0.78783 v 0.78784 h -0.78783 v -0.78784 h -0.78781 -0.78781 v 0.78784 h -0.78783 v 0.78781 0.78782 0.7878 h -0.78781 v -0.7878 -0.78782 -0.78781 -0.78784 z m 5.5147,0 h 0.78784 0.7878 0.78781 v 0.78781 h 0.78784 v 0.78784 0.78781 0.78782 h -0.78784 v 0.7878 h -0.78781 -0.7878 -0.78784 v -0.7878 h -0.7878 v -0.78782 -0.78781 -0.78784 h 0.7878 z m 0,0.78781 v 0.78784 0.78781 0.78782 h 0.78784 0.7878 0.78781 v -0.78782 -0.78781 -0.78784 h -0.78781 -0.7878 z m -11.817239,0.78784 h 0.78785 v 0.78781 h -0.78785 z m 12.605079,0 h 0.7878 v 0.78781 h -0.7878 z" />
  </g>
</svg>
